<svg width="16" height="16" viewBox="0 0 16 16" fill="none" xmlns="http://www.w3.org/2000/svg">
<rect width="16" height="16" rx="5" fill="white"/>
<path d="M3.739 12.132C3.453 12.132 3.145 12.1137 2.815 12.077C2.485 12.0403 2.12933 11.9853 1.748 11.912V4.19L1.99 4.608L1.011 4.322V3.53L3.288 3.442V7.072L3.101 6.841C3.365 6.577 3.65467 6.37167 3.97 6.225C4.28533 6.071 4.619 5.994 4.971 5.994C5.39633 5.994 5.77033 6.10767 6.093 6.335C6.41567 6.555 6.66867 6.885 6.852 7.325C7.04267 7.765 7.138 8.30767 7.138 8.953C7.138 9.415 7.07933 9.84033 6.962 10.229C6.852 10.6103 6.665 10.944 6.401 11.23C6.14433 11.516 5.796 11.7397 5.356 11.901C4.92333 12.055 4.38433 12.132 3.739 12.132ZM4.014 11.032C4.542 11.032 4.927 10.8597 5.169 10.515C5.411 10.1703 5.532 9.69 5.532 9.074C5.532 8.67067 5.48433 8.326 5.389 8.04C5.29367 7.74667 5.16167 7.523 4.993 7.369C4.82433 7.20767 4.61533 7.127 4.366 7.127C4.17533 7.127 3.97367 7.17833 3.761 7.281C3.54833 7.38367 3.32833 7.54133 3.101 7.754L3.288 7.281V11.274L3.101 10.9C3.44567 10.988 3.75 11.032 4.014 11.032ZM10.3639 12V11.208L11.2549 10.955L11.1009 11.186V6.962L11.2769 7.226L10.3639 6.951V6.159L12.2999 6.071L12.4979 7.116L12.2999 7.072C12.6299 6.72733 12.9563 6.46333 13.2789 6.28C13.6016 6.08933 13.9463 5.994 14.3129 5.994C14.5476 5.994 14.7969 6.03067 15.0609 6.104L14.9619 8.139H14.0709L13.9059 6.951L14.0489 7.248C14.0049 7.23333 13.9573 7.22233 13.9059 7.215C13.8619 7.20767 13.8179 7.204 13.7739 7.204C13.5466 7.204 13.3193 7.27367 13.0919 7.413C12.8719 7.55233 12.6813 7.732 12.5199 7.952L12.6409 7.534V11.186L12.4649 10.955L13.5539 11.208V12H10.3639Z" fill="#141414"/>
<path d="M7.88454 11.252C7.88454 10.9953 7.96887 10.79 8.13754 10.636C8.31354 10.4747 8.51887 10.394 8.75354 10.394C9.02487 10.394 9.23754 10.4747 9.39154 10.636C9.55287 10.79 9.63354 10.9953 9.63354 11.252C9.63354 11.5087 9.54554 11.7177 9.36954 11.879C9.19354 12.033 8.98821 12.11 8.75354 12.11C8.48954 12.11 8.27687 12.033 8.11554 11.879C7.96154 11.7177 7.88454 11.5087 7.88454 11.252Z" fill="#D2D904"/>
</svg>
