<svg xmlns="http://www.w3.org/2000/svg" width="24" height="24" fill="none"><mask id="a" width="24" height="24" x="0" y="0" maskUnits="userSpaceOnUse" style="mask-type:alpha"><path fill="#D9D9D9" d="M0 0h24v24H0z"/></mask><g mask="url(#a)"><path fill="url(#b)" d="M14 10.048V8.305a8.626 8.626 0 0 1 1.688-.538 8.877 8.877 0 0 1 1.812-.18c.433 0 .858.035 1.275.103.417.069.825.154 1.225.257v1.64a6.94 6.94 0 0 0-1.212-.346 6.928 6.928 0 0 0-1.288-.116c-.633 0-1.242.082-1.825.244a7.923 7.923 0 0 0-1.675.68Zm0 5.638v-1.743a8.631 8.631 0 0 1 1.688-.538 8.876 8.876 0 0 1 1.812-.18c.433 0 .858.035 1.275.103.417.069.825.154 1.225.257v1.64a6.94 6.94 0 0 0-1.212-.346 6.921 6.921 0 0 0-1.288-.115 7.13 7.13 0 0 0-1.825.23 6.82 6.82 0 0 0-1.675.692Zm0-2.819v-1.743a8.618 8.618 0 0 1 1.688-.538 8.876 8.876 0 0 1 1.812-.18c.433 0 .858.035 1.275.103.417.069.825.154 1.225.257v1.64a6.94 6.94 0 0 0-1.212-.346 6.93 6.93 0 0 0-1.288-.116c-.633 0-1.242.082-1.825.244a7.922 7.922 0 0 0-1.675.68Zm-7.5 3.434c.783 0 1.546.09 2.288.269.741.18 1.479.449 2.212.808V7.28a8.45 8.45 0 0 0-2.175-.922 8.963 8.963 0 0 0-4.112-.128A8.506 8.506 0 0 0 3 6.768v10.148a11.125 11.125 0 0 1 1.738-.461A10.015 10.015 0 0 1 6.5 16.3Zm6.5 1.077a10.84 10.84 0 0 1 2.213-.808 10.032 10.032 0 0 1 4.05-.115c.575.102 1.154.256 1.737.461V6.768a8.511 8.511 0 0 0-1.712-.538 9.007 9.007 0 0 0-4.113.128A8.449 8.449 0 0 0 13 7.28v10.098Zm-1 3.024a9.538 9.538 0 0 0-2.6-1.512 8.017 8.017 0 0 0-2.9-.539c-.7 0-1.387.094-2.062.282a8.917 8.917 0 0 0-1.938.795c-.35.188-.687.18-1.012-.026-.325-.205-.488-.504-.488-.897V6.153c0-.188.046-.368.138-.538a.869.869 0 0 1 .412-.385c.767-.41 1.567-.717 2.4-.922A10.635 10.635 0 0 1 6.5 4c.967 0 1.913.128 2.838.384.925.257 1.812.641 2.662 1.154.85-.513 1.738-.897 2.663-1.154C15.588 4.128 16.533 4 17.5 4c.867 0 1.717.103 2.55.308.833.205 1.633.512 2.4.922a.874.874 0 0 1 .413.385c.091.17.137.35.137.538v12.352c0 .393-.162.692-.487.897-.325.205-.663.214-1.013.026a8.918 8.918 0 0 0-1.938-.795 7.647 7.647 0 0 0-2.062-.282c-1 0-1.967.18-2.9.539-.933.358-1.8.862-2.6 1.512Z"/></g><defs><linearGradient id="b" x1="12" x2="12" y1="4" y2="20.402" gradientUnits="userSpaceOnUse"><stop stop-color="#D2D904"/><stop offset="1" stop-color="#848900"/></linearGradient></defs></svg>