<svg xmlns="http://www.w3.org/2000/svg" width="24" height="24" fill="none"><mask id="a" width="24" height="24" x="0" y="0" maskUnits="userSpaceOnUse" style="mask-type:alpha"><path fill="#D9D9D9" d="M0 0h24v24H0z"/></mask><g mask="url(#a)"><path fill="url(#b)" d="m11.837 23 4.941-13.2h2.28L24 23h-2.28l-1.14-3.355h-5.268L14.118 23h-2.28Zm4.127-5.28h3.91l-1.901-5.445h-.109l-1.9 5.445ZM3.258 19.7l-1.52-1.54 5.484-5.555a17.57 17.57 0 0 1-1.805-2.393A17.687 17.687 0 0 1 4.072 7.6h2.28c.327.66.675 1.256 1.047 1.787.37.532.818 1.091 1.343 1.678a15.3 15.3 0 0 0 1.982-2.708c.525-.926.968-1.912 1.33-2.957H0V3.2h7.602V1h2.172v2.2h7.602v2.2h-3.15a20.106 20.106 0 0 1-1.547 3.795 17.751 17.751 0 0 1-2.417 3.465l2.607 2.695-.815 2.255-3.366-3.41-5.43 5.5Z"/></g><defs><linearGradient id="b" x1="12" x2="12" y1="1" y2="23" gradientUnits="userSpaceOnUse"><stop stop-color="#D2D904"/><stop offset="1" stop-color="#848900"/></linearGradient></defs></svg>